HIERARCHY
ROOT Hips
{
	OFFSET -0.001795 -0.223333 0.028219
	CHANNELS 6 Xposition Yposition Zposition Zrotation Yrotation Xrotation 
	JOINT LeftUpLeg
	{
		OFFSET 0.069520 -0.091406 -0.006815
		CHANNELS 3 Zrotation Yrotation Xrotation
		JOINT LeftLeg
		{
			OFFSET 0.034277 -0.375199 -0.004496
			CHANNELS 3 Zrotation Yrotation Xrotation
			JOINT LeftFoot
			{
				OFFSET -0.013596 -0.397961 -0.043693
				CHANNELS 3 Zrotation Yrotation Xrotation
				JOINT LeftToe
				{
					OFFSET 0.026358 -0.055791 0.119288
					CHANNELS 3 Zrotation Yrotation Xrotation
					End Site
					{
						OFFSET 0.000000 0.000000 0.000000
					}
				}
			}
		}
	}
	JOINT RightUpLeg
	{
		OFFSET -0.067670 -0.090522 -0.004320
		CHANNELS 3 Zrotation Yrotation Xrotation
		JOINT RightLeg
		{
			OFFSET -0.038290 -0.382569 -0.008850
			CHANNELS 3 Zrotation Yrotation Xrotation
			JOINT RightFoot
			{
				OFFSET 0.015774 -0.398415 -0.042312
				CHANNELS 3 Zrotation Yrotation Xrotation
				JOINT RightToe
				{
					OFFSET -0.025372 -0.048144 0.123348
					CHANNELS 3 Zrotation Yrotation Xrotation
					End Site
					{
						OFFSET 0.000000 0.000000 0.000000
					}
				}
			}
		}
	}
	JOINT Spine
	{
		OFFSET -0.002533 0.108963 -0.026696
		CHANNELS 3 Zrotation Yrotation Xrotation
		JOINT Spine1
		{
			OFFSET 0.005487 0.135180 0.001092
			CHANNELS 3 Zrotation Yrotation Xrotation
			JOINT Spine2
			{
				OFFSET 0.001457 0.052922 0.025425
				CHANNELS 3 Zrotation Yrotation Xrotation
				JOINT Neck
				{
					OFFSET -0.002778 0.213870 -0.042857
					CHANNELS 3 Zrotation Yrotation Xrotation
					JOINT Head
					{
						OFFSET 0.005152 0.064970 0.051349
						CHANNELS 3 Zrotation Yrotation Xrotation
						End Site
						{
							OFFSET 0.000000 0.000000 0.000000
						}
					}
				}
				JOINT LeftShoulder
				{
					OFFSET 0.078845 0.121749 -0.034090
					CHANNELS 3 Zrotation Yrotation Xrotation
					JOINT LeftArm
					{
						OFFSET 0.090977 0.030469 -0.008868
						CHANNELS 3 Zrotation Yrotation Xrotation
						JOINT LeftForeArm
						{
							OFFSET 0.259612 -0.012772 -0.027456
							CHANNELS 3 Zrotation Yrotation Xrotation
							JOINT LeftHand
							{
								OFFSET 0.249234 0.008986 -0.001171
								CHANNELS 3 Zrotation Yrotation Xrotation
								End Site
								{
									OFFSET 0.000000 0.000000 0.000000
								}
							}
						}
					}
				}
				JOINT RightShoulder
				{
					OFFSET -0.081759 0.118833 -0.038615
					CHANNELS 3 Zrotation Yrotation Xrotation
					JOINT RightArm
					{
						OFFSET -0.096012 0.032551 -0.009143
						CHANNELS 3 Zrotation Yrotation Xrotation
						JOINT RightForeArm
						{
							OFFSET -0.253742 -0.013329 -0.021401
							CHANNELS 3 Zrotation Yrotation Xrotation
							JOINT RightHand
							{
								OFFSET -0.255298 0.007772 -0.005559
								CHANNELS 3 Zrotation Yrotation Xrotation
								End Site
								{
									OFFSET 0.000000 0.000000 0.000000
								}
							}
						}
					}
				}
			}
		}
	}
}
MOTION
Frames: 16
Frame Time: 0.050000
0.010271 0.925866 -0.002841 -1.131691 2.789244 -0.566621 8.716970 -0.466353 -16.966511 -8.409213 1.821970 30.258205 4.554687 11.641512 8.933575 0.000000 0.000000 0.000000 -6.609303 0.897868 -21.167472 4.563077 -0.855966 31.004412 -3.002992 -10.209689 11.329938 0.000000 0.000000 0.000000 6.346442 -2.589561 24.224343 -2.379228 1.233872 -26.175411 -2.245389 4.363505 29.666079 11.670806 -4.366030 -26.796584 0.000000 0.000000 0.000000 2.520137 -15.178837 4.890965 -5.113383 -32.037644 -1.986704 54.567799 -20.381576 -11.138607 0.000000 0.000000 0.000000 18.995404 -0.346196 0.415529 17.177054 30.589916 -0.439732 -48.220661 44.673689 -16.966557 0.000000 0.000000 0.000000 
0.010202 0.925032 -0.002463 -0.891716 2.962216 -0.525560 8.673081 -0.485612 -17.185995 -8.601949 1.882480 30.492847 4.267571 11.200149 9.066352 0.000000 0.000000 0.000000 -6.766987 0.864390 -21.287421 4.505559 -0.855995 31.201691 -3.300144 -10.738903 11.237076 0.000000 0.000000 0.000000 6.639248 -2.618968 23.848513 -2.663436 1.302316 -25.944265 -2.219157 4.354926 29.849444 11.770487 -4.420245 -26.836842 0.000000 0.000000 0.000000 0.438781 -15.310012 5.044493 -7.895822 -31.790371 -1.578398 55.074468 -21.656440 -11.787165 0.000000 0.000000 0.000000 19.357790 0.011120 0.653386 16.859879 30.627319 -0.506062 -47.967321 43.632778 -16.409566 0.000000 0.000000 0.000000 
0.010183 0.924294 -0.002347 -0.639470 3.163733 -0.271121 8.448249 -0.537033 -17.512082 -8.745332 1.925312 30.859669 4.249421 11.008977 8.264779 0.000000 0.000000 0.000000 -7.125572 0.796339 -21.421317 4.714019 -0.963204 31.164651 -3.532727 -11.075595 10.729583 0.000000 0.000000 0.000000 6.936354 -2.653421 23.472394 -3.057493 1.395146 -25.754936 -2.170248 4.327081 30.120807 11.709582 -4.261007 -27.448583 0.000000 0.000000 0.000000 -1.558575 -15.504691 5.213149 -9.654794 -31.646316 -1.333103 55.496571 -23.012302 -12.495998 0.000000 0.000000 0.000000 19.659510 0.399398 0.915281 17.193869 30.521558 -0.509878 -47.436297 43.578481 -16.125273 0.000000 0.000000 0.000000 
0.010020 0.923098 -0.002306 -0.601974 3.202976 -0.230295 8.514509 -0.539581 -17.827171 -8.849610 1.971158 31.209032 4.219282 10.990881 8.401334 0.000000 0.000000 0.000000 -6.986934 0.826136 -21.684949 4.650900 -0.948478 31.426752 -3.967060 -11.911312 10.799391 0.000000 0.000000 0.000000 7.203938 -2.681229 23.197469 -3.231321 1.437692 -25.571080 -2.012014 4.663226 30.466846 11.898212 -4.288530 -27.696767 0.000000 0.000000 0.000000 -3.480002 -15.598946 5.321360 -11.808429 -31.624801 -1.050780 56.882057 -25.293142 -14.035338 0.000000 0.000000 0.000000 20.216906 1.007269 1.378478 17.935371 30.100668 -0.508374 -46.437074 44.620724 -16.096985 0.000000 0.000000 0.000000 
0.009838 0.921427 -0.002239 -0.478960 3.347020 -0.057481 8.455859 -0.567850 -18.209593 -8.969697 2.016938 31.757078 4.215337 10.816387 7.612083 0.000000 0.000000 0.000000 -7.233468 0.780482 -21.905759 4.996130 -1.117910 31.785630 -4.256599 -12.322965 9.889585 0.000000 0.000000 0.000000 7.532726 -2.758741 23.156182 -3.589644 1.528340 -25.079958 -1.838471 4.863311 30.203672 11.868987 -4.167942 -27.933633 0.000000 0.000000 0.000000 -5.695765 -15.678775 5.416650 -13.627894 -31.309559 -0.780687 58.596439 -28.836111 -16.447939 0.000000 0.000000 0.000000 21.044533 1.565576 1.799576 19.507195 29.402266 -0.418659 -46.526601 47.556076 -17.287407 0.000000 0.000000 0.000000 
0.009773 0.918980 -0.002236 -0.412188 3.323267 -0.023092 8.448734 -0.576642 -18.485178 -9.159922 2.112520 32.284964 4.460618 11.093668 6.960950 0.000000 0.000000 0.000000 -7.228803 0.793457 -22.354227 5.141985 -1.198943 32.621311 -4.684093 -13.068272 9.202888 0.000000 0.000000 0.000000 7.831432 -2.831488 23.224608 -3.937234 1.613711 -24.937864 -1.679520 5.088096 30.479624 11.821325 -4.147182 -27.787472 0.000000 0.000000 0.000000 -7.729476 -15.686137 5.473117 -15.860897 -30.433466 -0.522697 60.971348 -32.578889 -19.375501 0.000000 0.000000 0.000000 22.014331 1.823968 2.065116 21.126791 28.909952 -0.353025 -45.235750 51.103427 -18.095796 0.000000 0.000000 0.000000 
0.010105 0.915986 -0.002474 -0.352390 3.429594 0.083631 8.304933 -0.624120 -19.161232 -9.158132 2.129857 33.305956 4.669916 11.328679 6.333942 0.000000 0.000000 0.000000 -7.431323 0.765697 -23.055270 5.266907 -1.294218 33.562364 -4.793438 -13.253857 9.030948 0.000000 0.000000 0.000000 8.284680 -2.957473 23.351603 -4.581770 1.763150 -24.950552 -1.354246 5.037619 30.639362 11.566229 -4.029732 -27.610267 0.000000 0.000000 0.000000 -10.169529 -15.819347 5.604834 -18.044080 -29.660161 -0.285686 63.752693 -36.572636 -22.795991 0.000000 0.000000 0.000000 22.380870 2.140705 2.278790 23.696893 27.962890 -0.233249 -43.699995 54.806130 -18.698588 0.000000 0.000000 0.000000 
0.010908 0.912769 -0.003139 -0.221170 3.562718 0.178102 8.151099 -0.679072 -19.882694 -9.268035 2.185744 34.280180 4.806006 11.485590 5.910367 0.000000 0.000000 0.000000 -7.568877 0.743497 -23.715878 5.265010 -1.355860 34.905766 -4.980239 -13.477471 7.857289 0.000000 0.000000 0.000000 8.495919 -3.007005 23.305853 -4.877240 1.850675 -24.317084 -1.380981 5.164590 30.334511 11.554687 -3.962656 -27.675106 0.000000 0.000000 0.000000 -12.199941 -16.013811 5.701967 -20.638593 -28.582726 -0.041992 66.875692 -40.761064 -26.855817 0.000000 0.000000 0.000000 23.115910 2.123665 2.354955 25.939605 27.054968 -0.174616 -41.770799 58.254698 -18.853006 0.000000 0.000000 0.000000 
0.011930 0.909102 -0.003992 -0.115336 3.839341 0.177904 8.096007 -0.730243 -20.700589 -9.290320 2.191251 35.596472 4.506837 10.841246 5.377014 0.000000 0.000000 0.000000 -7.889179 0.670065 -24.409489 5.428279 -1.514477 36.145327 -5.143092 -13.741852 7.465172 0.000000 0.000000 0.000000 8.737757 -3.115808 23.588538 -5.395945 1.985776 -24.080823 -1.440239 4.796245 30.247533 11.412266 -3.824682 -28.147097 0.000000 0.000000 0.000000 -14.345639 -16.246825 5.903704 -23.148699 -27.840912 0.164263 69.290696 -44.681232 -30.553563 0.000000 0.000000 0.000000 23.898036 2.306043 2.437219 27.857324 26.089569 -0.177181 -39.076647 60.586396 -18.118342 0.000000 0.000000 0.000000 
0.012614 0.905317 -0.004608 0.046216 3.934797 -0.006120 7.962304 -0.774648 -21.251155 -9.847793 2.451686 36.657561 5.267132 12.184306 5.249899 0.000000 0.000000 0.000000 -8.341965 0.572650 -25.113246 5.640347 -1.689030 37.793220 -5.027158 -13.447973 7.003512 0.000000 0.000000 0.000000 8.781211 -3.193814 24.080634 -5.872669 2.104077 -24.066349 -1.742997 4.631909 30.240771 11.498002 -3.953152 -27.884685 0.000000 0.000000 0.000000 -16.096392 -16.832911 6.263568 -25.751926 -27.027350 0.324717 68.752647 -47.905312 -32.275667 0.000000 0.000000 0.000000 24.735445 2.620700 2.621283 29.446591 24.822568 -0.297886 -36.824377 62.693071 -17.504073 0.000000 0.000000 0.000000 
0.012528 0.900775 -0.004442 0.053990 4.035220 -0.244983 8.076185 -0.779370 -21.818202 -10.164367 2.622054 38.030676 5.577369 12.659599 4.828010 0.000000 0.000000 0.000000 -8.321531 0.568574 -25.496463 5.754383 -1.818424 39.149937 -5.377909 -14.051328 5.971162 0.000000 0.000000 0.000000 8.567280 -3.175448 24.308828 -6.056782 2.173835 -23.536583 -2.293593 4.054077 29.942932 11.346133 -4.048576 -27.378094 0.000000 0.000000 0.000000 -18.136134 -17.396036 6.748206 -27.574940 -26.523817 0.439248 63.432131 -49.951814 -30.234873 0.000000 0.000000 0.000000 25.865593 2.938359 2.684150 30.652420 24.489612 -0.239650 -33.536005 63.882723 -15.936699 0.000000 0.000000 0.000000 
0.011655 0.896659 -0.003369 -0.109879 3.700052 -0.484532 8.629891 -0.663348 -21.829979 -10.656324 2.939514 38.796399 5.826190 12.924897 3.930162 0.000000 0.000000 0.000000 -8.103788 0.641159 -25.678039 5.941444 -1.898618 40.227276 -5.481039 -14.131799 4.517359 0.000000 0.000000 0.000000 8.248825 -3.117219 24.605819 -6.169132 2.192330 -23.683719 -2.720318 3.914521 30.063077 11.801224 -4.541484 -26.609892 0.000000 0.000000 0.000000 -19.360189 -18.317891 7.385402 -29.096151 -25.791607 0.436740 53.914264 -49.348261 -24.352986 0.000000 0.000000 0.000000 26.701902 3.088377 2.693022 32.168029 24.053679 -0.210909 -31.854030 65.898098 -15.465977 0.000000 0.000000 0.000000 
0.010400 0.893838 -0.001494 -0.394698 3.473214 -0.786885 9.193651 -0.548097 -21.794890 -11.220498 3.278656 39.563913 6.473247 14.032530 3.522904 0.000000 0.000000 0.000000 -7.749300 0.733926 -25.750505 5.903468 -1.866535 40.870220 -5.393494 -13.929964 4.352166 0.000000 0.000000 0.000000 7.816286 -2.992206 24.560513 -6.297663 2.236326 -23.360221 -3.059503 3.346784 30.088444 11.886032 -4.734049 -26.555038 0.000000 0.000000 0.000000 -20.689032 -19.214344 8.158053 -29.989730 -25.127607 0.357135 44.437967 -45.850469 -17.690965 0.000000 0.000000 0.000000 27.207018 3.170107 2.512257 33.474542 24.297787 0.002608 -32.973180 68.481649 -17.062626 0.000000 0.000000 0.000000 
0.009452 0.892757 0.000591 -0.670107 2.745033 -1.178753 9.808361 -0.382686 -21.350342 -11.625178 3.642102 40.064314 6.745601 14.482643 3.355617 0.000000 0.000000 0.000000 -7.108693 0.920615 -25.551807 5.656863 -1.618203 41.387794 -5.288379 -13.664695 3.802730 0.000000 0.000000 0.000000 7.450249 -2.891750 24.826295 -6.127902 2.179939 -23.428400 -3.649288 3.385671 30.147405 12.383645 -5.181324 -26.192607 0.000000 0.000000 0.000000 -20.793751 -19.762210 8.567934 -31.319379 -24.120961 0.222390 36.217600 -40.718074 -12.129798 0.000000 0.000000 0.000000 27.672017 3.010556 2.269982 33.991249 24.566253 0.153301 -38.519387 72.524919 -22.596148 0.000000 0.000000 0.000000 
0.008969 0.893456 0.002624 -1.062562 2.157574 -1.302913 10.281569 -0.257949 -20.838864 -11.930911 3.884533 39.764258 7.428784 15.738122 3.482606 0.000000 0.000000 0.000000 -6.542607 1.081615 -25.468819 5.617474 -1.489642 41.446387 -5.155838 -13.430777 4.048366 0.000000 0.000000 0.000000 7.240710 -2.781021 24.596687 -5.992672 2.151785 -23.053980 -3.944406 3.169680 29.846221 12.445049 -5.340111 -25.968924 0.000000 0.000000 0.000000 -20.618189 -20.134278 8.902465 -32.659100 -22.380424 -0.114470 31.314038 -37.125189 -9.156317 0.000000 0.000000 0.000000 27.483540 3.060546 2.076744 34.179561 24.435123 0.229302 -49.342660 76.832493 -33.451536 0.000000 0.000000 0.000000 
0.008937 0.895357 0.004239 -1.305356 1.634340 -1.500037 10.407058 -0.195218 -20.135581 -11.952853 3.973366 39.417890 7.876650 16.531551 3.418767 0.000000 0.000000 0.000000 -6.183409 1.184341 -25.242704 5.522690 -1.337084 41.335196 -4.898945 -12.985266 4.659715 0.000000 0.000000 0.000000 7.114892 -2.712830 24.532075 -6.371410 2.228493 -23.258126 -3.805682 3.324558 30.137137 12.522985 -5.548826 -25.400422 0.000000 0.000000 0.000000 -20.454572 -20.298230 9.022327 -33.354209 -21.606139 -0.303917 28.820896 -35.625672 -7.904161 0.000000 0.000000 0.000000 27.569502 3.035836 2.016057 33.548309 24.470258 0.176888 -60.673306 79.618522 -45.156278 0.000000 0.000000 0.000000 
